<?xml version="1.0" encoding="UTF-8" standalone="no"?>
<!DOCTYPE svg PUBLIC "-//W3C//DTD SVG 1.1//EN" "http://www.w3.org/Graphics/SVG/1.1/DTD/svg11.dtd">
<!-- Generated by graphviz version 2.40.1 (20161225.0304)
 -->
<!-- Title: %0 Pages: 1 -->
<svg width="753pt" height="113pt" viewBox="0.00 0.00 752.86 112.80" xmlns="http://www.w3.org/2000/svg" xmlns:xlink="http://www.w3.org/1999/xlink">
<g id="graph0" class="graph" transform="scale(1 1) rotate(0) translate(4 108.8)">
<title>%0</title>
<polygon fill="#ffffff" stroke="transparent" points="-4,4 -4,-108.8 748.8606,-108.8 748.8606,4 -4,4"/>
<!-- A -->
<g id="node1" class="node">
<title>A</title>
<polygon fill="none" stroke="#000000" points="54.8025,-76 .0657,-76 .0657,-40 54.8025,-40 54.8025,-76"/>
<text text-anchor="middle" x="27.4341" y="-53.8" font-family="Times,serif" font-size="14.00" fill="#000000">Article</text>
</g>
<!-- B -->
<g id="node2" class="node">
<title>B</title>
<polygon fill="none" stroke="#0000ff" points="319.0389,-76 222.0531,-76 222.0531,-40 319.0389,-40 319.0389,-76"/>
<text text-anchor="middle" x="270.546" y="-53.8" font-family="Times,serif" font-size="14.00" fill="#000000">Slobber Proxy</text>
</g>
<!-- A&#45;&gt;B -->
<g id="edge1" class="edge">
<title>A-&gt;B</title>
<path fill="none" stroke="#000000" d="M54.8495,-58C92.7229,-58 162.012,-58 211.8507,-58"/>
<polygon fill="#000000" stroke="#000000" points="211.8578,-61.5001 221.8578,-58 211.8578,-54.5001 211.8578,-61.5001"/>
<text text-anchor="middle" x="138.5842" y="-62.2" font-family="Times,serif" font-size="14.00" fill="#000000">1. send highlighted text</text>
</g>
<!-- C -->
<g id="node3" class="node">
<title>C</title>
<polygon fill="none" stroke="#000000" points="694.4801,-103 635.3799,-103 635.3799,-67 694.4801,-67 694.4801,-103"/>
<text text-anchor="middle" x="664.93" y="-80.8" font-family="Times,serif" font-size="14.00" fill="#000000">Slobber</text>
</g>
<!-- B&#45;&gt;C -->
<g id="edge2" class="edge">
<title>B-&gt;C</title>
<path fill="none" stroke="#000000" d="M319.1077,-72.6035C325.0217,-73.9632 331.0144,-75.1483 336.7918,-76 439.9219,-91.2034 563.2031,-89.2753 625.1862,-86.9354"/>
<polygon fill="#000000" stroke="#000000" points="625.461,-90.4273 635.3123,-86.5285 625.1798,-83.433 625.461,-90.4273"/>
<text text-anchor="middle" x="451.8956" y="-92.2" font-family="Times,serif" font-size="14.00" fill="#000000">2. look up the highlighted text in Slobber</text>
</g>
<!-- D -->
<g id="node4" class="node">
<title>D</title>
<polygon fill="none" stroke="#000000" points="744.7913,-36 585.0687,-36 585.0687,0 744.7913,0 744.7913,-36"/>
<text text-anchor="middle" x="664.93" y="-13.8" font-family="Times,serif" font-size="14.00" fill="#000000">Slobber Proxy (Frontend)</text>
</g>
<!-- B&#45;&gt;D -->
<g id="edge4" class="edge">
<title>B-&gt;D</title>
<path fill="none" stroke="#000000" d="M302.6155,-39.8962C313.1739,-34.8164 325.1879,-29.9368 336.7918,-27.2 415.6688,-8.5969 508.1641,-7.8221 574.8114,-10.8093"/>
<polygon fill="#000000" stroke="#000000" points="574.7078,-14.3083 584.8657,-11.2972 575.0471,-7.3166 574.7078,-14.3083"/>
<text text-anchor="middle" x="451.8956" y="-32.2" font-family="Times,serif" font-size="14.00" fill="#000000">4. display the lookup results</text>
</g>
<!-- C&#45;&gt;B -->
<g id="edge3" class="edge">
<title>C-&gt;B</title>
<path fill="none" stroke="#000000" d="M635.0233,-73.3815C615.8977,-66.5858 590.3783,-58.6783 566.9994,-55.2 485.0659,-43.0099 388.9846,-47.2535 328.9264,-52.0859"/>
<polygon fill="#000000" stroke="#000000" points="328.5475,-48.6053 318.8744,-52.9275 329.1316,-55.5809 328.5475,-48.6053"/>
<text text-anchor="middle" x="451.8956" y="-60.2" font-family="Times,serif" font-size="14.00" fill="#000000">3. receive lookup results from Slobber</text>
</g>
</g>
</svg>